<svg id="Capa_1" enable-background="new 0 0 494.683 494.683" height="512" viewBox="0 0 494.683 494.683" width="512" xmlns="http://www.w3.org/2000/svg"><g><g><g><path d="m304.82 106.096c13.557 67.258-12.952 129.341-59.21 138.665s-94.748-37.64-108.305-104.899c-10.098-50.098 27.698-102.498 47.642-125.975 6.702-7.889 17.914-10.149 27.149-5.472 27.481 13.917 82.626 47.583 92.724 97.681z" fill="#a6d4a1"/></g></g><g><g><path d="m304.82 106.096c-10.098-50.098-65.243-83.763-92.724-97.681-8.113-4.109-17.75-2.86-24.517 2.853 28.743 15.355 77.777 47.874 87.241 94.828 13.26 65.785-11.813 126.61-56.203 137.968 8.9 2.185 17.988 2.512 26.993.697 46.258-9.324 72.768-71.407 59.21-138.665z" fill="#9cc997"/></g></g><g><g><path d="m435.501 276.652c-64.092 45.44-141.385 46.543-172.637 2.462-31.253-44.081-4.63-116.652 59.462-162.092 47.74-33.847 120.143-18.637 153.981-8.673 11.371 3.349 18.946 14.033 18.342 25.872-1.796 35.228-11.408 108.584-59.148 142.431z" fill="#a6d4a1"/></g></g><g><g><path d="m476.307 108.349c-21.005-6.185-56.87-14.387-92.471-11.627 24.743 1.73 47.422 7.195 62.471 11.627 11.371 3.349 18.946 14.033 18.342 25.872-1.797 35.229-11.408 108.585-59.148 142.432-27.52 19.511-57.471 30.84-85.169 33.935 34.858 4.269 77.315-7.097 115.169-33.935 47.74-33.847 57.351-107.203 59.148-142.432.605-11.839-6.971-22.524-18.342-25.872z" fill="#9cc997"/></g></g><path d="m251.199 78.446c-3.449-2.293-8.105-1.354-10.397 2.096l-15.837 23.834-6.662-33.049c-.818-4.061-4.773-6.688-8.835-5.87-4.06.818-6.688 4.773-5.87 8.834l6.662 33.051-23.836-15.839c-3.45-2.293-8.105-1.354-10.397 2.096s-1.354 8.105 2.097 10.397l36.328 24.139 23.807 118.107c.718 3.561 3.847 6.02 7.345 6.02.491 0 .99-.048 1.49-.149 4.06-.818 6.689-4.773 5.87-8.834l-23.807-118.107 24.14-36.328c2.291-3.45 1.352-8.105-2.098-10.398z" fill="#9cc997"/><path d="m432.317 198.851-34.895-5.942 33.638-23.849c3.379-2.395 4.176-7.077 1.78-10.456-2.393-3.378-7.076-4.177-10.456-1.78l-33.638 23.849 5.943-34.894c.695-4.083-2.051-7.958-6.135-8.653-4.079-.695-7.957 2.051-8.652 6.134l-8.461 49.682-43.529 30.861 5.943-34.894c.695-4.083-2.051-7.958-6.135-8.653-4.082-.696-7.957 2.051-8.652 6.134l-8.461 49.682-52.081 36.925c-3.379 2.396-4.176 7.077-1.78 10.456 1.462 2.063 3.775 3.163 6.125 3.163 1.499 0 3.015-.449 4.331-1.382l52.081-36.925 49.682 8.46c.426.073.85.107 1.268.107 3.589 0 6.762-2.585 7.385-6.242.695-4.084-2.051-7.958-6.135-8.653l-34.894-5.942 43.529-30.861 49.683 8.46c.426.073.85.107 1.268.107 3.589 0 6.762-2.585 7.385-6.242.693-4.083-2.053-7.957-6.137-8.652z" fill="#9cc997"/><g><g><path d="m268.314 267.129c0 62.062-40.311 112.372-102.372 112.372s-112.373-50.311-112.373-112.372c0-56.975 42.402-104.047 97.372-111.38 4.907-.655 9.915 2.007 15.001 2.007 62.061 0 102.372 47.311 102.372 109.373z" fill="#8face0"/></g></g><g><g><path d="m165.942 154.756c-5.087 0-10.092.344-15 .999 54.969 7.333 97.373 54.398 97.373 111.373s-42.404 104.04-97.373 111.374c4.908.655 9.913.999 15 .999 62.062 0 112.373-50.311 112.373-112.373 0-62.061-50.312-112.372-112.373-112.372z" fill="#688ed5"/></g></g><g><g><path d="m204.17 227.081c0 5.732-3.693 10.427-7.156 14.894-3.188 4.112-6.513 9.063-11.72 11.333-4.651 2.027-10.291 1.229-15.89 1.229s-11.24.798-15.891-1.23c-5.206-2.27-8.532-7.221-11.719-11.333-3.463-4.467-7.156-9.161-7.156-14.893s3.693-10.427 7.156-14.894c3.188-4.112 6.513-9.063 11.72-11.333 4.651-2.027 10.291-1.23 15.89-1.23s11.24-.798 15.891 1.23c5.206 2.27 8.532 7.221 11.719 11.333 3.464 4.468 7.156 9.162 7.156 14.894z" fill="#688ed5"/></g></g><g><g><path d="m171.62 391.609c0 50.153-30.657 87.81-80.81 87.81-5.11 0-10.121 1.578-15.001.767-43.015-7.15-75.809-44.534-75.809-89.577s32.794-82.427 75.809-89.577c4.88-.811 9.891-.233 15.001-.233 50.153 0 80.81 40.657 80.81 90.81z" fill="#c5d5f0"/></g></g><g><g><path d="m90.81 299.799c-5.11 0-10.12.429-15 1.24 43.014 7.151 75.81 44.527 75.81 89.57s-32.796 82.419-75.81 89.57c4.88.811 9.89 1.24 15 1.24 50.153 0 90.81-40.657 90.81-90.81s-40.657-90.81-90.81-90.81z" fill="#b8c9ea"/></g></g><g><g><path d="m121.773 406.36c0 4.798-3.289 8.727-6.374 12.465-2.839 3.441-5.801 7.585-10.438 9.485-4.142 1.697-9.165 1.029-14.152 1.029s-10.011.668-14.153-1.03c-4.637-1.9-7.598-6.044-10.437-9.485-3.084-3.739-6.373-7.667-6.373-12.465s3.289-8.727 6.374-12.466c2.839-3.441 5.801-7.585 10.438-9.485 4.142-1.697 9.165-1.029 14.152-1.029s10.011-.667 14.153 1.03c4.637 1.9 7.598 6.044 10.437 9.485 3.084 3.74 6.373 7.669 6.373 12.466z" fill="#8face0"/></g></g><g><g><circle cx="270.928" cy="376.283" fill="#b8c9ea" r="112.373"/></g></g><g><g><path d="m377.816 341.605c-17.031-52.493-69.035-83.869-121.855-76.71 41.446 5.624 78.084 34.264 91.855 76.71 19.152 59.033-13.177 122.414-72.21 141.566-6.539 2.122-13.131 3.608-19.711 4.5 16.195 2.198 33.125.881 49.711-4.5 59.033-19.152 91.362-82.533 72.21-141.566z" fill="#8face0"/></g></g><g><g><path d="m338.029 382.606c3.42 4.255 3.304 10.085 3.234 15.6-.065 5.076.263 10.863-2.496 15.854-2.464 4.458-7.395 7.447-11.818 11.001-4.423 3.555-8.403 7.729-13.286 9.177-5.467 1.621-11.048.056-16.019-.972-5.401-1.117-11.118-2.257-14.538-6.512s-3.304-10.084-3.234-15.599c.065-5.076-.263-10.863 2.496-15.854 2.464-4.458 7.395-7.447 11.818-11.001 4.423-3.555 8.403-7.729 13.286-9.176 5.467-1.621 11.048-.056 16.019.972 5.4 1.116 11.118 2.256 14.538 6.51z" fill="#8face0"/></g></g></g></svg>