<svg id="Capa_1" enable-background="new 0 0 497 497" height="512" viewBox="0 0 497 497" width="512" xmlns="http://www.w3.org/2000/svg"><g><g><g><path d="m253.173 80.601s-59.243 37.396-116.026 22.286c-38.891-10.349-66.542-42.645-80.106-61.97-5.642-8.039-2.675-19.19 6.217-23.362 21.375-10.028 61.42-24.309 100.311-13.96 56.783 15.111 89.604 77.006 89.604 77.006z" fill="#c8e68f"/></g></g><g><g><path d="m243.823 80.601s59.243 37.396 116.026 22.286c38.891-10.349 66.542-42.645 80.106-61.97 5.642-8.039 2.675-19.19-6.217-23.362-21.375-10.028-61.42-24.309-100.311-13.96-56.783 15.111-89.604 77.006-89.604 77.006z" fill="#c8e68f"/></g></g><g><g><path d="m401.518 5.634c.124.055.246.109.369.163 11.058 4.914 14.748 18.809 7.594 28.569-14.301 19.511-40.973 48.766-77.632 58.521-23.777 6.327-47.982 3.446-68.091-2.038 22.154 9.794 59.628 21.741 96.091 12.038 38.892-10.349 66.543-42.646 80.107-61.971 5.631-8.023 2.7-19.173-6.173-23.338-8.313-3.901-19.458-8.45-32.265-11.944z" fill="#bbdb81"/></g></g><g><g><path d="m221.765 60.373v15.453c-78.746 13.867-139.121 93.422-139.121 189.494s60.376 175.628 139.121 189.494v15.453c0 14.764 11.969 26.733 26.733 26.733 14.764 0 26.733-11.969 26.733-26.733v-16.292c76.593-15.993 134.739-94.373 134.739-188.655 0-94.283-58.146-172.662-134.739-188.655v-16.292c0-14.764-11.969-26.733-26.733-26.733-14.764 0-26.733 11.969-26.733 26.733z" fill="#f7e07b"/></g></g><g><g><path d="m275.231 76.665v-16.292c0-14.764-11.969-26.733-26.733-26.733-12.548 0-23.071 8.647-25.95 20.305 12.842 1.952 22.683 13.04 22.683 26.428 0 9.242 5.996 17.373 14.789 20.22 69.165 22.391 119.95 96.614 119.95 184.727 0 64.147-26.922 120.924-68.251 155.708 57.829-29.559 98.251-97.102 98.251-175.708 0-94.282-58.146-172.662-134.739-188.655z" fill="#f2d062"/></g></g><g><g><g><circle cx="186.855" cy="149.571" fill="#f2d062" r="7.5"/></g></g><g><g><circle cx="142.777" cy="194.142" fill="#f2d062" r="7.5"/></g></g><g><g><circle cx="194.355" cy="205.774" fill="#f2d062" r="7.5"/></g></g><g><g><circle cx="322.033" cy="378.516" fill="#f2d062" r="7.5"/></g></g><g><g><circle cx="346.638" cy="337.19" fill="#f2d062" r="7.5"/></g></g></g></g></svg>