<svg id="Capa_1" enable-background="new 0 0 488.569 488.569" height="512" viewBox="0 0 488.569 488.569" width="512" xmlns="http://www.w3.org/2000/svg"><g><g><g><path d="m232.618 95.781c-.613 0-1.236-.076-1.858-.234-4.014-1.023-6.438-5.106-5.415-9.12 13.416-52.638 39.876-82.672 40.996-83.925 2.761-3.088 7.502-3.354 10.59-.594 3.085 2.758 3.353 7.493.601 10.581-.25.282-25.195 28.768-37.652 77.642-.865 3.393-3.915 5.65-7.262 5.65z" fill="#ab7b64"/></g></g><g><g><path d="m182.615 487.612c69.456 8.693 149.479-41.423 165.283-167.707 15.805-126.284-15.948-231.264-113.818-243.513-97.87-12.248-154.516 81.669-170.32 207.953-15.805 126.284 49.399 194.574 118.855 203.267z" fill="#f0c267"/></g></g><g><g><path d="m234.08 76.392c-11.135-1.394-21.731-1.398-31.799-.152.466.054.927.093 1.395.152 97.87 12.249 129.623 117.229 113.819 243.513-13.518 108.016-74.02 160.298-134.705 167.727 69.416 8.587 149.318-41.548 165.11-167.727 15.803-126.284-15.95-231.264-113.82-243.513z" fill="#eaa85c"/></g></g><g><g><path d="m253.295 41.011c2.445 22.599 23.334 168.801 160.029 244.095 7.107 3.914 15.486-2.495 13.606-10.388-14.284-59.962-65.492-237.514-170.907-236.742-1.631.012-2.903 1.414-2.728 3.035z" fill="#afd171"/></g></g><g><g><path d="m426.483 272.846c-14.9-61.752-66.217-235.969-170.76-234.868-1.47.015-2.613 1.277-2.458 2.739.027.256.057.53.089.821.036.327.264.607.578.706 86.401 27.311 129.65 178.134 142.593 232.465.039.165.068.329.098.493 4.841 3.083 9.843 6.075 15.014 8.966 7.741 4.329 16.926-2.699 14.846-11.322z" fill="#a4c46a"/></g></g></g></svg>