<svg id="Capa_1" enable-background="new 0 0 496.817 496.817" height="512" viewBox="0 0 496.817 496.817" width="512" xmlns="http://www.w3.org/2000/svg"><g><g><g><path d="m356.948 29.475c-53.658-10.485-136.485 95.136-152.007 174.084-11.489 58.434 19.763 84.345 59.738 99.788 23.605 9.119 48.682 14.05 73.982 14.546 42.847.841 81.582-11.309 93.071-69.743 15.523-78.949-21.152-208.065-74.784-218.675z" fill="#6ab584"/></g></g><g><g><path d="m355.743 28.57c-7.274-1.358-15.068-.569-23.139 1.98 50.018 19.22 83.974 140.396 69.757 216.058-9.546 50.801-39.911 66.903-75.784 69.956 4.424.322 8.86.517 13.302.566 42.852.481 81.484-11.994 92.482-70.522 14.859-79.075-22.898-207.879-76.618-218.038z" fill="#5ea570"/></g></g><g><g><path d="m285.357 485.052c17.607-67.906 38.763-158.361 41.287-169.182.168-.719.283-1.44.348-2.175l10.143-114.526c.713-8.055-4.803-15.337-12.751-16.83-7.987-1.501-15.801 3.336-18.019 11.154l-31.368 110.533c-.183.646-.324 1.298-.424 1.962-1.59 10.638-15.535 104.413-23.29 172.722-.929 8.187 4.613 15.702 12.711 17.223l3.25.611c8.123 1.526 16.039-3.493 18.113-11.492z" fill="#97d4ac"/></g></g><g><g><path d="m324.384 182.339c-7.861-1.477-15.543 3.192-17.898 10.794.59 1.902.835 3.941.649 6.036l-10.143 114.526c-.065.735-.18 1.456-.348 2.175-2.524 10.821-23.68 101.276-41.287 169.182-.37 1.425-.932 2.75-1.64 3.966 2.264 3.498 5.89 6.091 10.278 6.915l3.25.611c8.122 1.526 16.038-3.493 18.112-11.492 17.607-67.906 38.763-158.361 41.287-169.182.168-.719.283-1.44.348-2.175l10.143-114.526c.713-8.056-4.804-15.337-12.751-16.83z" fill="#89cc9f"/></g></g><g><g><path d="m142.591 27.676c53.826-9.583 134.868 97.414 149.062 176.611 10.506 58.619-21.176 84.001-61.405 98.771-23.754 8.721-48.911 13.23-74.216 13.302-42.855.121-81.381-12.677-91.887-71.296-14.194-79.198 24.642-207.681 78.446-217.388z" fill="#6ab584"/></g></g><g><g><path d="m211.765 485.052c-17.608-67.906-38.763-158.361-41.287-169.182-.168-.719-.283-1.44-.348-2.175l-10.143-114.526c-.713-8.055 4.803-15.337 12.751-16.83 7.987-1.501 15.8 3.336 18.019 11.154l31.368 110.533c.183.646.324 1.298.424 1.962 1.59 10.638 15.536 104.413 23.29 172.722.929 8.187-4.614 15.702-12.711 17.223l-3.25.611c-8.124 1.526-16.039-3.493-18.113-11.492z" fill="#97d4ac"/></g></g><g><g><path d="m251.908 2.817c-4.968.006-10.81-1.858-15.831-.066-52.505 18.744-105.327 129.176-105.327 205.642 0 62.009 37.134 82.203 81.079 89.952 25.948 4.575 52.56 4.575 78.508 0 43.944-7.748 61.079-27.942 61.079-89.952 0-83.778-42.581-205.51-99.508-205.576z" fill="#7fbd93"/></g></g><g><g><path d="m251.083 0c-4.966.006-9.982.979-15 2.769 52.507 18.737 105.333 129.154 105.333 205.624 0 62.009-37.134 82.203-81.079 89.952-8.034 1.417-16.132 2.392-24.254 2.931 18.11 1.203 36.34.227 54.254-2.931 43.944-7.748 81.079-27.942 81.079-89.952 0-83.778-63.406-208.327-120.333-208.393z" fill="#68b181"/></g></g><g><g><path d="m266.833 480.668c4.96-72.877 9.215-169.51 9.718-181.069.033-.768.012-1.528-.063-2.293l-11.643-119.148c-.819-8.38-7.864-14.771-16.284-14.771-8.462 0-15.528 6.452-16.295 14.879l-10.845 119.144c-.063.697-.082 1.391-.056 2.089.418 11.192 4.18 109.837 9.38 181.231.623 8.557 7.741 15.181 16.32 15.181h3.443c8.605 0 15.741-6.658 16.325-15.243z" fill="#abd4b9"/></g></g><g><g><path d="m276.488 297.306-11.643-119.148c-.819-8.38-7.864-14.771-16.285-14.771-6.676 0-12.469 4.024-14.999 9.858.663 1.528 1.114 3.174 1.284 4.913l11.643 119.148c.075.765.096 1.525.063 2.293-.503 11.559-4.758 108.192-9.718 181.069-.214 3.149-1.317 6.034-3.043 8.432 2.981 4.137 7.83 6.812 13.275 6.812h3.443c8.605 0 15.74-6.658 16.325-15.243 4.96-72.877 9.215-169.51 9.718-181.069.033-.769.012-1.53-.063-2.294z" fill="#95c9a6"/></g></g></g></svg>