<svg id="Capa_1" enable-background="new 0 0 480.107 480.107" height="512" viewBox="0 0 480.107 480.107" width="512" xmlns="http://www.w3.org/2000/svg"><g><g><g><path d="m216.503 33.866c4.115 7.466 2.548 16.74 4.031 24.147 1.727 8.629 6.264 16.976 4.534 24.066-2.081 8.53-10.024 12.772-16.912 16.568-6.889 3.797-14.717 8.246-23.041 5.45-6.917-2.324-11.551-10.617-17.923-16.684-5.471-5.209-14.149-8.838-18.264-16.304s-2.548-16.74-4.031-24.147c-1.727-8.629-6.264-16.977-4.534-24.066 2.081-8.53 10.024-12.772 16.912-16.568 6.889-3.797 14.717-8.246 23.041-5.45 6.917 2.323 11.551 10.617 17.923 16.684 5.471 5.209 14.149 8.837 18.264 16.304z" fill="#68b181"/></g></g><g><g><path d="m263.169 45.531c-4.763 7.07-4.029 16.447-6.165 23.693-2.488 8.441-7.75 16.351-6.658 23.567 1.314 8.681 8.847 13.613 15.37 18.008s13.925 9.523 22.464 7.479c7.096-1.698 12.45-9.546 19.337-15.022 5.913-4.701 14.88-7.543 19.643-14.614 4.763-7.07 4.029-16.447 6.165-23.693 2.488-8.441 7.75-16.352 6.658-23.567-1.314-8.681-8.847-13.613-15.37-18.008s-13.925-9.523-22.464-7.48c-7.096 1.698-12.45 9.546-19.337 15.022-5.913 4.703-14.88 7.545-19.643 14.615z" fill="#68b181"/></g></g><g><g><path d="m229.775 149.959c-3.329 0-6.37-2.233-7.251-5.605-10.75-41.126-33.879-65.017-34.111-65.254-2.902-2.955-2.86-7.703.095-10.606 2.954-2.902 7.703-2.862 10.607.094 1.063 1.082 26.172 27.02 37.922 71.973 1.048 4.007-1.352 8.105-5.359 9.153-.637.165-1.275.245-1.903.245z" fill="#f3d69e"/></g></g><g><g><path d="m243.799 150.994c-.976 0-1.967-.191-2.921-.595-3.814-1.615-5.598-6.016-3.982-9.831 15.985-37.76 39.51-58.059 40.503-58.905 3.156-2.685 7.888-2.303 10.573.85 2.682 3.151 2.304 7.879-.842 10.565-.314.27-21.93 19.106-36.422 53.337-1.21 2.86-3.989 4.579-6.909 4.579z" fill="#f3d69e"/></g></g><g><g><path d="m235.842 421.347s-53.792-15.195-53.792-92.348v-140.297c0-29.709 24.084-53.792 53.792-53.792 29.709 0 53.792 24.084 53.792 53.792v140.297c0 78.451-53.792 92.348-53.792 92.348z" fill="#f4e2c1"/></g></g><g><g><path d="m235.842 134.91c-5.208 0-10.237.755-15 2.135 22.406 6.496 38.792 27.156 38.792 51.657v140.297c0 50.915-22.655 74.634-38.56 85.015 8.376 5.526 14.768 7.332 14.768 7.332s53.792-13.897 53.792-92.348v-140.296c0-29.708-24.084-53.792-53.792-53.792z" fill="#f3d69e"/></g></g><g fill="#efcb83"><path d="m252.64 244.545c-4.143 0-7.5 3.358-7.5 7.5s3.357 7.5 7.5 7.5h36.993v-15z"/><path d="m289.343 338.643h-36.703c-4.143 0-7.5 3.358-7.5 7.5s3.357 7.5 7.5 7.5h35.003c.801-4.682 1.381-9.674 1.7-15z"/><path d="m226.543 300.068c0-4.142-3.357-7.5-7.5-7.5h-36.994v15h36.994c4.142 0 7.5-3.358 7.5-7.5z"/><path d="m219.043 198.47h-36.994v15h36.994c4.143 0 7.5-3.358 7.5-7.5s-3.358-7.5-7.5-7.5z"/></g><g><g><path d="m243.742 413.95h-15.13l3.352 25.428c.118.898.081 1.804-.109 2.689l-6.237 28.958c-.872 4.049 1.703 8.039 5.753 8.911.532.114 1.064.169 1.587.169 3.457 0 6.566-2.405 7.324-5.922l6.237-28.96c.554-2.572.66-5.199.316-7.807z" fill="#f3d69e"/></g></g></g></svg>