<svg id="Capa_1" enable-background="new 0 0 487.081 487.081" height="512" viewBox="0 0 487.081 487.081" width="512" xmlns="http://www.w3.org/2000/svg"><g><g><g><g><path d="m389.695 123.349c-8.893-1.593-14.584-14.1-22.372-16.914-8.698-3.143-21.219 2.547-28.043-1.731-8.18-5.127-7.78-18.65-12.443-24.758-5.956-7.8-18.133-13.825-16.684-21.914s14.96-9.513 23.253-14.762c6.493-4.11 10.809-16.931 20.259-18.9 7.885-1.643 17.654 8.038 26.903 8.109 8.281.064 17.959-9.691 26.853-8.098 8.893 1.593 14.584 14.1 22.372 16.914 8.698 3.143 21.219-2.547 28.043 1.731 8.18 5.127 7.78 18.65 12.443 24.758 5.956 7.8 18.133 13.825 16.684 21.914s-14.96 9.513-23.253 14.762c-6.493 4.11-10.809 16.931-20.258 18.9-7.885 1.643-17.654-8.038-26.903-8.109-8.282-.064-17.96 9.691-26.854 8.098z" fill="#c8e68f"/></g></g><g><g><path d="m470.278 67.784c-4.664-6.108-4.263-19.631-12.443-24.758-6.824-4.277-19.345 1.412-28.043-1.731-7.788-2.814-13.479-15.321-22.372-16.914s-18.572 8.162-26.853 8.098c-9.249-.071-19.018-9.752-26.903-8.109-7.109 1.482-11.313 9.105-15.724 14.54 6.865 1.592 14.645 7.872 22.09 7.929 8.281.064 17.959-9.691 26.853-8.098 8.893 1.593 14.584 14.1 22.372 16.913 8.699 3.143 21.219-2.547 28.043 1.731 8.18 5.127 7.78 18.649 12.443 24.758 5.666 7.422 16.955 13.237 16.792 20.751 8.226-4.063 19.136-5.974 20.429-13.197 1.449-8.088-10.729-14.113-16.684-21.913z" fill="#bbdb81"/></g></g><g><g><path d="m417.02 84.918c-.702.078-1.425.058-2.155-.073l-96.438-17.271c-4.077-.73-6.791-4.627-6.061-8.705.731-4.078 4.631-6.792 8.705-6.06l96.438 17.271c4.077.73 6.791 4.627 6.061 8.705-.6 3.346-3.335 5.775-6.55 6.133z" fill="#bbdb81"/></g></g></g><g><g><path d="m302.793 120.862c-.993 0-2.003-.199-2.973-.618-3.802-1.644-5.552-6.059-3.907-9.861l3.116-7.207c10.862-25.125 9.926-53.504-2.569-77.858-1.891-3.686-.436-8.206 3.249-10.097 3.686-1.892 8.206-.436 10.097 3.249 14.55 28.358 15.64 61.402 2.991 90.659l-3.116 7.207c-1.225 2.833-3.986 4.526-6.888 4.526z" fill="#a4c46a"/></g></g><g><g><path d="m214.652 196.87s-18.445 58.462-71.493 77.26c-38.145 13.517-160.939 53.015-140.981 138.94 19.957 85.925 166.006 79.489 250.054-22.68 63.191-76.815 81.446-176.18 86.615-220.766 1.689-14.571-1.897-29.26-10.061-41.447-16.187-24.16-48.778-30.84-73.165-14.997-10.154 6.597-17.753 16.462-21.541 27.963z" fill="#8face0"/></g></g><g><g><path d="m328.786 128.178c-13.247-19.772-37.479-27.828-59.212-21.421 11.54 3.381 22.004 10.663 29.212 21.421 8.164 12.186 11.751 26.876 10.061 41.447-5.169 44.586-23.424 143.951-86.615 220.766-40.904 49.722-96.49 76.762-145.082 81.525 54.148 5.767 125.431-21.169 175.082-81.525 63.191-76.815 81.446-176.18 86.615-220.766 1.689-14.571-1.897-29.261-10.061-41.447z" fill="#688ed5"/></g></g><g><g><path d="m335.574 200.123c2.367.688 4.808-.855 5.203-3.289 1.484-9.146 2.583-17.33 3.391-24.303 1.878-16.196-2.108-32.525-11.184-46.07-17.993-26.855-54.219-34.281-81.326-16.669-11.287 7.333-19.734 18.298-23.944 31.082l-7.405 21.239c-.775 2.222.472 4.639 2.732 5.296z" fill="#bbdb81"/></g></g><g><g><path d="m332.984 126.462c-14.383-21.468-40.414-30.502-64.127-24.275 13.481 3.529 25.771 11.803 34.127 24.274 9.075 13.545 13.061 29.873 11.184 46.07-.696 6.005-1.609 12.913-2.797 20.555l24.203 7.036c2.367.688 4.808-.855 5.203-3.289 1.484-9.146 2.583-17.33 3.391-24.303 1.877-16.195-2.109-32.523-11.184-46.068z" fill="#afd171"/></g></g></g></svg>