<svg id="Capa_1" enable-background="new 0 0 497 497" height="512" viewBox="0 0 497 497" width="512" xmlns="http://www.w3.org/2000/svg"><g><g><g><path d="m488.286 332.615c-5.45-5.884-14.345-6.843-21.017-2.393-39.221 26.159-86.333 41.416-137.015 41.416-136.591 0-247.32-110.729-247.32-247.321 0-9.863.603-19.583 1.73-29.143l-28.422-10-26.186 10c-19.024 36.491-29.866 77.921-30.054 121.879-.628 147.588 119.135 267.883 266.725 267.882 96.553-.001 181.102-51.315 227.911-128.151 3.78-6.204 2.96-14.188-2.002-19.494-1.454-1.556-2.904-3.114-4.35-4.675z" fill="#f7eaad"/></g></g><g><g><path d="m492.636 337.289c-1.453-1.555-2.903-3.113-4.35-4.674-5.45-5.884-14.344-6.843-21.017-2.393-39.222 26.159-86.333 41.416-137.016 41.416-136.591 0-247.32-110.729-247.32-247.32 0-9.863.603-19.583 1.729-29.143l-13.753-10-14.669 10c-1.345 2.579-1.823 7.814-1.823 7.814-1.197 10.158-1.838 20.486-1.838 30.965 0 145.133 117.653 262.786 262.786 262.786 53.852 0 103.909-16.211 145.583-44.006 7.089-4.728 16.54-3.709 22.331 2.543 1.537 1.659 3.078 3.315 4.622 4.966.963 1.03 1.776 2.157 2.443 3.349 1.463-2.247 2.896-4.515 4.293-6.808 3.78-6.205 2.961-14.189-2.001-19.495z" fill="#f7e07b"/></g></g><g><g><path d="m65.914 16.951-35.86 78.223h54.608l15.465-72.996c1.104-5.209-2.87-10.113-8.195-10.113h-18.403c-3.275.001-6.25 1.909-7.615 4.886z" fill="#c39f8e"/></g></g><g><g><circle cx="107.516" cy="355.787" fill="#f7e07b" r="7.5"/></g></g><g><g><path d="m83.718 342.54c-2.515.192-5.067-.889-6.655-3.082-22.167-30.634-37.648-64.479-46.01-100.595-8.664-37.42-9.236-75.513-1.699-113.221.813-4.062 4.763-6.696 8.825-5.885 4.061.812 6.696 4.763 5.884 8.825-7.115 35.603-6.576 71.568 1.604 106.897 7.908 34.156 22.56 66.181 43.549 95.185 2.428 3.356 1.676 8.045-1.68 10.473-1.162.841-2.485 1.301-3.818 1.403z" fill="#f7e07b"/></g></g><g><g><path d="m393.167 409.733c0-5.362-5.458-8.979-10.403-6.905-8.694 3.646-17.637 6.931-26.796 9.833-83.857 26.569-152.402 5.004-195.136-17.767-3.713-1.978-8.335-.521-10.232 3.257-1.846 3.676-.184 8.194 3.448 10.125 39.608 21.051 81.644 31.655 124.369 31.655 27.232 0 54.749-4.311 82.082-12.971 9.581-3.036 18.938-6.477 28.041-10.295 2.797-1.173 4.627-3.899 4.627-6.932z" fill="#f7e07b"/></g></g></g></svg>