<svg id="Capa_1" enable-background="new 0 0 492.465 492.465" height="512" viewBox="0 0 492.465 492.465" width="512" xmlns="http://www.w3.org/2000/svg"><g><g><g><path d="m207.761 58.057h-75.046v-30.498c0-15.22 12.339-27.559 27.559-27.559h19.927c15.221 0 27.559 12.339 27.559 27.559v30.498z" fill="#ab7b64"/></g></g><g><g><path d="m169.541 474.588c-86.76 0-157.092-70.332-157.092-157.092v-123.939c0-74.077 51.273-136.179 120.266-152.752 11.812-2.837 24.143 15.66 36.826 15.66 13.02 0 25.671-18.416 37.769-15.43 68.516 16.91 119.322 78.783 119.322 152.522v123.939c0 86.759-70.332 157.092-157.091 157.092z" fill="#b78c7a"/></g></g><g><g><path d="m169.541 36.465c-38.663 0-74.057 13.976-101.425 37.14 21.428-10.958 45.704-17.14 71.425-17.14 86.759 0 157.092 70.332 157.092 157.092v123.939c0 48.096-21.622 91.136-55.667 119.952 50.854-26.005 85.667-78.913 85.667-139.952v-123.939c-.001-86.76-70.333-157.092-157.092-157.092z" fill="#ab7b64"/></g></g><g><g><ellipse cx="319.039" cy="331.488" fill="#ab7b64" rx="160.977" ry="160.977" transform="matrix(.707 -.707 .707 .707 -140.953 322.685)"/></g></g><path d="m319.039 170.511c-5.059 0-10.06.245-15 .701 81.871 7.567 145.977 76.429 145.977 160.275s-64.106 152.708-145.977 160.275c4.94.457 9.941.702 15 .702 88.905 0 160.977-72.072 160.977-160.977 0-88.904-72.072-160.976-160.977-160.976z" fill="#9a6a53"/><g><g><ellipse cx="319.039" cy="331.488" fill="#bbdb81" rx="119.988" ry="119.988" transform="matrix(.707 -.707 .707 .707 -140.953 322.685)"/></g></g><g><g><path d="m319.039 211.5c-5.08 0-10.086.319-15 .932 59.187 7.382 104.988 57.869 104.988 119.056s-45.801 111.674-104.988 119.056c4.914.613 9.92.932 15 .932 66.267 0 119.988-53.721 119.988-119.988 0-66.268-53.72-119.988-119.988-119.988z" fill="#afd171"/></g></g><g><g><ellipse cx="319.039" cy="331.488" fill="#afd171" rx="60.144" ry="60.145" transform="matrix(.32 -.948 .948 .32 -97.052 527.798)"/></g></g><g><g><path d="m319.039 271.343c-5.179 0-10.205.655-15 1.887 25.959 6.664 45.145 30.22 45.145 58.258s-19.186 51.594-45.145 58.258c4.795 1.231 9.821 1.886 15 1.886 33.217 0 60.145-26.927 60.145-60.145 0-33.216-26.928-60.144-60.145-60.144z" fill="#a4c46a"/></g></g><g><g><path d="m318.889 392.099c-.49-4.12 2.44-7.85 6.55-8.35 4.11-.5 7.85 2.43 8.34 6.54.5 4.12-2.43 7.85-6.54 8.35-.31.04-.61.06-.91.06-3.74-.01-6.98-2.8-7.44-6.6zm-23.78 2.68c-3.87-1.47-5.83-5.8-4.36-9.67 1.461-3.88 5.79-5.83 9.67-4.36 3.87 1.46 5.82 5.79 4.36 9.67-1.14 2.99-3.99 4.84-7.02 4.84-.88 0-1.78-.15-2.65-.48zm51.96-9.54c-2.36-3.4-1.51-8.07 1.89-10.43 3.41-2.36 8.079-1.51 10.44 1.9 2.36 3.4 1.51 8.07-1.9 10.43-1.3.9-2.789 1.33-4.26 1.33-2.38 0-4.72-1.12-6.17-3.23zm-78.61-8.83c-2.75-3.1-2.47-7.84.63-10.59 3.09-2.75 7.83-2.47 10.59.63 2.75 3.09 2.47 7.83-.63 10.58-1.43 1.27-3.21 1.9-4.98 1.9-2.07 0-4.12-.85-5.61-2.52zm100.37-10.34c-3.67-1.93-5.08-6.46-3.15-10.13h-.01c1.93-3.67 6.47-5.08 10.13-3.15 3.67 1.93 5.08 6.46 3.15 10.13-1.34 2.55-3.95 4.01-6.64 4.01-1.18 0-2.37-.28-3.48-.86zm-115.46-18.3c-.99-4.02 1.46-8.08 5.48-9.08 4.02-.99 8.09 1.46 9.08 5.48 1 4.02-1.46 8.09-5.48 9.08-.6.15-1.21.23-1.81.23-3.36-.01-6.42-2.29-7.27-5.71zm118.31-16.28c0-.04.01-.07.01-.11 0-.02-.01-.05-.01-.07-.01-4.14 3.34-7.51 7.48-7.53 4.14-.01 7.51 3.33 7.53 7.48 0 .04-.01.08-.01.12 0 .04.01.07.01.11 0 4.14-3.36 7.5-7.51 7.5-4.14 0-7.5-3.36-7.5-7.5zm-112.85-7.01c-4.03-.98-6.49-5.03-5.51-9.06.98-4.02 5.04-6.49 9.06-5.51 4.02.98 6.49 5.04 5.51 9.06-.83 3.43-3.9 5.73-7.28 5.73-.59 0-1.19-.07-1.78-.22zm106.76-17.6c-1.94-3.66-.54-8.2 3.12-10.14 3.66-1.94 8.2-.54 10.14 3.11 1.93 3.66.54 8.2-3.12 10.14-1.12.6-2.32.88-3.51.88-2.68 0-5.28-1.45-6.63-3.99zm-96.62-9.56c-3.1-2.74-3.4-7.48-.65-10.58 2.74-3.11 7.48-3.4 10.58-.66 3.11 2.74 3.4 7.48.66 10.58-1.48 1.68-3.55 2.54-5.62 2.54-1.77 0-3.54-.62-4.97-1.88zm79.85-9.25c-3.42-2.35-4.28-7.02-1.94-10.43 2.35-3.42 7.02-4.28 10.43-1.93 3.42 2.34 4.28 7.01 1.94 10.42-1.46 2.12-3.8 3.26-6.19 3.26-1.47 0-2.95-.43-4.24-1.32zm-58.25-10.11c-1.48-3.87.46-8.2 4.33-9.68 3.87-1.48 8.2.46 9.68 4.33 1.48 3.87-.46 8.2-4.33 9.68-.88.34-1.78.5-2.67.5-3.02 0-5.87-1.84-7.01-4.83zm34.69 1.25c-4.12-.49-7.06-4.21-6.58-8.33.49-4.11 4.22-7.06 8.33-6.57 4.11.48 7.06 4.21 6.57 8.32-.45 3.82-3.69 6.63-7.44 6.63-.29 0-.58-.02-.88-.05z" fill="#9cba65"/></g></g></g></svg>