<svg id="Capa_1" enable-background="new 0 0 497 497" height="512" viewBox="0 0 497 497" width="512" xmlns="http://www.w3.org/2000/svg"><g><g><g><path d="m159.001 497h-30.997c-8.525 0-15.436-6.911-15.436-15.436v-146.703l31.869-10 30 10v146.702c0 8.526-6.911 15.437-15.436 15.437z" fill="#f7e5c1"/></g></g><g><g><path d="m144.437 334.861v146.703c0 8.525-6.911 15.436-15.436 15.436h30c8.525 0 15.436-6.911 15.436-15.436v-146.703l-15.729-10z" fill="#f5deb2"/></g></g><g><g><path d="m159.001 497h-30.997c-8.525 0-15.436-6.911-15.436-15.436v-22.93h61.869v22.93c0 8.525-6.911 15.436-15.436 15.436z" fill="#f3d69e"/></g></g><g><g><path d="m144.437 458.634v22.93c0 8.525-6.911 15.436-15.436 15.436h30c8.525 0 15.436-6.911 15.436-15.436v-22.93z" fill="#efcb83"/></g></g><g><g><path d="m166.571 217.478c-6.967-49.453-7.621-99.635-1.883-149.333l6.199-53.691c1.007-8.723-6.768-15.902-15.383-14.203l-7.081 1.396c-5.531 1.091-9.722 5.63-10.369 11.23l-7.151 61.929c-5.481 47.469-5.118 95.377.994 142.672l11.604 50z" fill="#68b181"/></g></g><g><g><path d="m140.029 334.761h34.434v-34.305c0-60.75 9.423-101.208 27.934-159.07l16.468-51.477c2.676-8.363-3.564-16.911-12.345-16.911h-7.217c-5.637 0-10.628 3.643-12.345 9.012l-18.995 59.376c-18.51 57.861-27.934 98.319-27.934 159.07z" fill="#95c9a6"/></g></g><g><g><path d="m147.002 334.761h-34.434v-34.305c0-60.75-9.423-101.208-27.934-159.07l-16.468-51.477c-2.676-8.363 3.564-16.911 12.345-16.911h7.217c5.637 0 10.628 3.643 12.345 9.012l18.995 59.376c18.51 57.861 27.934 98.319 27.934 159.07z" fill="#7fbd93"/></g></g><g><g><path d="m384.405 333.683v-19.822l-30-10-31.869 10v25.469c0 11.222-4.761 21.961-13.216 29.342-15.407 13.45-25.072 33.31-24.834 55.423.427 39.629 33.195 71.872 72.826 71.689 39.877-.184 72.147-32.567 72.147-72.488 0-23.8-11.474-44.912-29.19-58.124-9.953-7.424-15.864-19.071-15.864-31.489z" fill="#f7e5c1"/></g></g><g><g><path d="m400.27 365.171c-9.954-7.424-15.865-19.071-15.865-31.488v-19.822l-17.454-10-12.546 10v19.822c0 12.418 5.911 24.065 15.865 31.488 17.715 13.212 29.19 34.324 29.19 58.124 0 34.861-24.609 63.969-57.402 70.912 4.929 1.046 10.03 1.6 15.255 1.576 39.877-.184 72.147-32.567 72.147-72.488 0-23.799-11.475-44.911-29.19-58.124z" fill="#f5deb2"/></g></g><g><g><path d="m376.54 226.478c-6.967-49.453-7.621-99.635-1.883-149.333l6.2-53.691c1.007-8.723-6.768-15.902-15.383-14.204l-7.081 1.396c-5.53 1.091-9.722 5.63-10.369 11.23l-7.151 61.929c-5.481 47.469-5.118 95.377.994 142.672l15.104 50z" fill="#68b181"/></g></g><g><g><path d="m349.997 313.761h34.435v-14.305c0-60.75 9.423-91.208 27.934-149.07l16.468-51.477c2.676-8.363-3.564-16.911-12.345-16.911h-7.217c-5.637 0-10.628 3.643-12.345 9.012l-18.995 59.376c-18.51 57.861-27.934 88.319-27.934 149.07v14.305z" fill="#95c9a6"/></g></g><g><g><path d="m356.971 313.761h-34.435v-14.305c0-60.75-9.423-91.208-27.934-149.07l-16.468-51.477c-2.676-8.363 3.564-16.911 12.345-16.911h7.217c5.637 0 10.628 3.643 12.345 9.012l18.995 59.376c18.51 57.861 27.934 88.319 27.934 149.07v14.305z" fill="#7fbd93"/></g></g></g></svg>