<svg id="Capa_1" enable-background="new 0 0 497 497" height="512" viewBox="0 0 497 497" width="512" xmlns="http://www.w3.org/2000/svg"><g><g><g><path d="m272.735 175.81h-47.596s-80.496 321.19 23.798 321.19 23.798-321.19 23.798-321.19z" fill="#f5deb2"/></g></g><g><g><path d="m272.735 175.81h-30s72.219 288.177-8.798 318.591c4.513 1.694 9.497 2.599 15 2.599 104.294 0 23.798-321.19 23.798-321.19z" fill="#f3d69e"/></g></g><g><g><path d="m433.387 50.731c-47.2 16.046-96.362 23.839-145.676 23.796-50.016-.043-99.472-6.852-148.73-15.964-24.166-4.47-48.256-9.467-72.497-13.422-8.388-1.369-16.795-2.603-25.22-3.658 12.433 83.394 100.037 148.018 206.273 148.018 105.393 0 192.449-63.603 205.964-146.038-6.67 2.543-13.371 4.976-20.114 7.268z" fill="#f5deb2"/></g></g><g><g><path d="m433.387 50.731c-4.052 1.377-8.123 2.672-12.203 3.928-18.246 73.071-94.832 128.987-188.655 134.409 4.957.287 9.961.434 15.008.434 105.393 0 192.449-63.603 205.964-146.038-6.67 2.542-13.371 4.975-20.114 7.267z" fill="#f3d69e"/></g></g><g><g><path d="m154.224 105.205c18.835 50.389 54.067 84.298 94.426 84.298 55.275 0 100.933-63.603 108.021-146.038-3.497 2.541-7.012 4.974-10.548 7.267-24.755 16.046-50.539 23.839-76.403 23.796-26.232-.043-52.17-6.852-78.004-15.964-12.674-4.47-25.309-9.467-38.023-13.422-4.399-1.369-8.808-2.603-13.227-3.658 1.799 22.986 6.591 44.547 13.758 63.721" fill="#f3d69e"/></g></g><g><g><path d="m346.124 50.731c-7.2 4.667-14.49 8.615-21.841 11.896-10.777 65.635-46.486 115.897-90.635 125.29 4.904 1.044 9.912 1.586 15.003 1.586 55.275 0 100.933-63.603 108.021-146.038-3.498 2.541-7.012 4.974-10.548 7.266z" fill="#efcb83"/></g></g><g><g><path d="m32.32 42.61c2.098-25.741 23.604-54.722 186.575-37.326s261.612-4.874 243.767 43.18c-17.846 48.054-123.255 67.603-213.724 67.603s-219.753-35.003-216.618-73.457z" fill="#efcb83"/></g></g><g><g><path d="m307.253 11.781c89.899 2.845 128.366 1.792 115.408 36.683-16.737 45.069-100.497 65.064-186.717 67.374 4.405.151 8.742.229 12.993.229 90.47 0 195.879-19.549 213.724-67.603 14.333-38.594-46.485-31.831-155.408-36.683z" fill="#edc472"/></g></g></g></svg>