<svg id="Capa_1" enable-background="new 0 0 490.981 490.981" height="512" viewBox="0 0 490.981 490.981" width="512" xmlns="http://www.w3.org/2000/svg"><g><g><g><path d="m263.271 490.762c-3.004.745-6.279-.432-8.074-3.166l-13.044-19.87c-.115-.175-.223-.356-.323-.541-3.227-5.95-4.892-12.672-4.816-19.44.003-.278.022-.555.055-.83l3.071-25.006c.505-4.111 4.246-7.037 8.358-6.53 4.111.505 7.035 4.247 6.53 8.358l-3.017 24.565c.018 3.99 1.005 7.942 2.865 11.473l12.859 19.589c2.273 3.463 1.308 8.112-2.154 10.386-.727.478-1.509.813-2.31 1.012z" fill="#cd5668"/></g></g><g><g><path d="m344.971 146.172c18.345-37.412 15.244-76.553-6.926-87.424s-55.014 10.645-73.359 48.057c-9.641 19.662-13.352 39.794-11.487 56.053 1.672 14.576-1.145 29.317-7.479 42.551l-32.784 68.495 31.615 15.502 34.077-67.861c6.584-13.111 16.514-24.365 29.062-31.968 13.995-8.481 27.64-23.743 37.281-43.405z" fill="#a4c46a"/></g></g><g><g><path d="m146.01 146.172c-18.345-37.412-15.244-76.553 6.926-87.424s55.014 10.645 73.359 48.057c9.641 19.662 13.352 39.794 11.487 56.053-1.672 14.576 1.145 29.317 7.479 42.551l32.784 68.495-31.615 15.502-34.077-67.861c-6.584-13.111-16.514-24.365-29.062-31.968-13.996-8.481-27.64-23.743-37.281-43.405z" fill="#a4c46a"/></g></g><g><g><path d="m290.199 75.446c0-41.668-20.017-75.446-44.709-75.446s-44.709 33.778-44.709 75.446c0 21.899 5.532 41.608 14.364 55.385 7.918 12.351 11.88 26.827 12.019 41.498l.72 75.933h35.211l.72-75.933c.139-14.671 4.1-29.146 12.019-41.498 8.833-13.777 14.365-33.486 14.365-55.385z" fill="#bbdb81"/></g></g><g><g><path d="m245.49 0c-5.263 0-10.31 1.547-15 4.365 17.312 10.405 29.709 38.294 29.709 71.081 0 21.899-5.532 41.608-14.364 55.385-7.918 12.351-11.88 26.827-12.019 41.498l-.72 75.933h30l.72-75.933c.139-14.671 4.1-29.146 12.019-41.498 8.832-13.777 14.364-33.487 14.364-55.385 0-41.667-20.017-75.446-44.709-75.446z" fill="#afd171"/></g></g><g><g><path d="m353.941 327.809c0 65.419-114.323 104.915-123.451 100.991-31.873-13.703-103.451-50.137-103.451-100.991 0-60.483 45.333-110.379 103.874-117.563 4.777-.586 9.641.112 14.577.112 65.419 0 108.451 52.032 108.451 117.451z" fill="#d5717f"/></g></g><g><g><path d="m245.49 209.358c-5.081 0-10.087.321-15 .942 58.337 7.372 103.451 57.172 103.451 117.509 0 50.858-71.583 87.29-103.451 100.99 9.123 3.922 15 5.986 15 5.986s118.451-41.557 118.451-106.976-53.032-118.451-118.451-118.451z" fill="#cd5668"/></g></g><path d="m157.09 57.127c-1.42.425-2.807.961-4.154 1.621-3.24 1.589-6.06 3.797-8.478 6.499l20.311 35.178c1.389 2.406 3.91 3.752 6.502 3.752 1.272 0 2.562-.324 3.743-1.006 3.587-2.071 4.816-6.658 2.745-10.245z" fill="#95b361"/><path d="m245.49 0c-2.557 0-5.06.382-7.5 1.078v44.093c0 4.142 3.358 7.5 7.5 7.5s7.5-3.358 7.5-7.5v-44.093c-2.439-.696-4.943-1.078-7.5-1.078z" fill="#a4c46a"/><path d="m338.045 58.748c-.722-.354-1.456-.67-2.2-.956l-20.285 35.134c-2.071 3.587-.842 8.174 2.745 10.245 1.181.682 2.471 1.006 3.743 1.006 2.592 0 5.113-1.345 6.502-3.752l19.353-33.52c-2.698-3.471-5.979-6.255-9.858-8.157z" fill="#95b361"/><g fill="#cd5668"><path d="m275.947 264.298c0 4.142 3.358 7.5 7.5 7.5h66.435c-2.823-5.25-6.026-10.263-9.58-15h-56.855c-4.142 0-7.5 3.358-7.5 7.5z"/><path d="m261.51 369.455c-4.142 0-7.5 3.358-7.5 7.5s3.358 7.5 7.5 7.5h71.892c5.205-4.715 10.022-9.719 14.217-15z"/><path d="m220.49 317.744h-93.021c-.279 3.319-.43 6.674-.43 10.065 0 1.662.096 3.304.245 4.935h93.206c4.142 0 7.5-3.358 7.5-7.5s-3.358-7.5-7.5-7.5z"/></g></g></svg>